<svg width="24" height="24" viewBox="0 0 24 24" fill="none" xmlns="http://www.w3.org/2000/svg">
<rect width="24" height="24" rx="4" fill="#6C35DE"/>
<path fill-rule="evenodd" clip-rule="evenodd" d="M19.0198 7.27543L15.2453 3.34228C15.1388 3.2313 15.0104 3.1436 14.8683 3.08473C14.7333 3.02879 14.5886 3 14.4424 3H5.84243C5.55956 3 5.28884 3.11493 5.09236 3.31842C4.90469 3.5128 4.7998 3.77243 4.7998 4.04262V10.4571H5.0398C5.57 10.4571 5.9998 10.012 5.9998 9.46286V4.24286H13.1998V8.18101C13.1998 8.44471 13.3009 8.69761 13.481 8.88408L13.5186 8.92307C13.6987 9.10953 13.9428 9.21429 14.1974 9.21429H17.9998V9.46286C17.9998 10.012 18.4296 10.4571 18.9598 10.4571H19.1998V7.72286L19.0198 7.27543ZM14.3998 7.97143V4.24286L17.9998 7.97143H14.3998ZM5.79745 11.7C5.54284 11.7 5.29866 11.8048 5.11863 11.9912L5.08098 12.0302C4.90095 12.2167 4.7998 12.4696 4.7998 12.7333V19.3574C4.7998 19.6276 4.90469 19.8872 5.09236 20.0816C5.28884 20.2851 5.55956 20.4 5.84243 20.4H18.1572C18.44 20.4 18.7108 20.2851 18.9072 20.0816C19.0949 19.8872 19.1998 19.6276 19.1998 19.3574V12.7333C19.1998 12.4696 19.0987 12.2167 18.9186 12.0302L18.881 11.9912C18.7009 11.8048 18.4568 11.7 18.2022 11.7H5.79745ZM17.9998 17.9143V19.1571H5.9998V12.9429H17.9998V17.9143Z" fill="white"/>
<path d="M15.8758 14.978C15.5941 14.978 15.3813 15.0456 15.2373 15.1808C15.0934 15.316 15.0214 15.5155 15.0214 15.7791V16.0834H16.4532V16.6411H15.0214V18H14.4111V15.7791C14.4111 15.3499 14.5379 15.0135 14.7914 14.7701C15.048 14.5234 15.4001 14.4 15.8476 14.4C16.0354 14.4 16.2107 14.422 16.3734 14.4659C16.5361 14.5099 16.6785 14.5741 16.8006 14.6586L16.6081 15.196C16.4141 15.0507 16.17 14.978 15.8758 14.978Z" fill="white"/>
<path d="M10.5605 14.4507H11.997C12.3475 14.4507 12.6589 14.5251 12.9312 14.6738C13.2035 14.8192 13.4147 15.0271 13.565 15.2975C13.7152 15.5645 13.7903 15.8738 13.7903 16.2254C13.7903 16.5769 13.7152 16.8879 13.565 17.1583C13.4147 17.4254 13.2035 17.6332 12.9312 17.782C12.6589 17.9273 12.3475 18 11.997 18H10.5605V14.4507ZM11.9689 17.4423C12.2098 17.4423 12.4211 17.3932 12.6026 17.2952C12.7873 17.1938 12.9281 17.0518 13.0251 16.8693C13.1253 16.6834 13.1753 16.4687 13.1753 16.2254C13.1753 15.982 13.1253 15.769 13.0251 15.5865C12.9281 15.4006 12.7873 15.2586 12.6026 15.1606C12.4211 15.0592 12.2098 15.0085 11.9689 15.0085H11.1708V17.4423H11.9689Z" fill="white"/>
<path d="M8.55218 14.4507C8.83697 14.4507 9.08421 14.5014 9.2939 14.6028C9.50671 14.7042 9.66945 14.8496 9.78211 15.0389C9.89478 15.2282 9.95111 15.453 9.95111 15.7132C9.95111 15.9701 9.89478 16.1949 9.78211 16.3876C9.66945 16.5769 9.50671 16.7223 9.2939 16.8237C9.08421 16.9251 8.83697 16.9758 8.55218 16.9758H7.81047V18H7.2002V14.4507H8.55218ZM8.52401 16.418C8.79003 16.418 8.99189 16.3572 9.12959 16.2355C9.26729 16.1138 9.33615 15.9397 9.33615 15.7132C9.33615 15.4868 9.26729 15.3127 9.12959 15.191C8.99189 15.0693 8.79003 15.0085 8.52401 15.0085H7.81047V16.418H8.52401Z" fill="white"/>
</svg>
